solid safe_servostand
facet normal -0.0 -0.0 1.0
  outer loop
    vertex 0.0 -7.9999999999999964 0.0
    vertex 3.130666756339838 4.517062859407732 0.0
    vertex 0.0 19.0 0.0
  endloop
endfacet
facet normal -0.0 -0.0 1.0
  outer loop
    vertex 3.130666756339838 4.517062859407732 0.0
    vertex 0.0 -7.9999999999999964 0.0
    vertex 7.999999999999999 -7.9999999999999964 0.0
  endloop
endfacet
facet normal -0.0 -0.0 1.0
  outer loop
    vertex 0.0 19.0 0.0
    vertex 3.130666756339838 4.517062859407732 0.0
    vertex 3.1 4.75 0.0
  endloop
endfacet
facet normal -0.0 -0.0 1.0
  outer loop
    vertex 3.130666756339838 4.517062859407732 0.0
    vertex 7.999999999999999 -7.9999999999999964 0.0
    vertex 3.2205771365940046 4.3 0.0
  endloop
endfacet
facet normal -0.0 -0.0 1.0
  outer loop
    vertex 3.2205771365940046 4.3 0.0
    vertex 7.999999999999999 -7.9999999999999964 0.0
    vertex 3.3636038969321067 4.113603896932108 0.0
  endloop
endfacet
facet normal -0.0 -0.0 1.0
  outer loop
    vertex 3.3636038969321067 4.113603896932108 0.0
    vertex 7.999999999999999 -7.9999999999999964 0.0
    vertex 3.549999999999999 3.9705771365940055 0.0
  endloop
endfacet
facet normal -0.0 -0.0 1.0
  outer loop
    vertex 3.549999999999999 3.9705771365940055 0.0
    vertex 7.999999999999999 -7.9999999999999964 0.0
    vertex 3.7670628594077304 3.8806667563398385 0.0
  endloop
endfacet
facet normal -0.0 -0.0 1.0
  outer loop
    vertex 3.7670628594077304 3.8806667563398385 0.0
    vertex 7.999999999999999 -7.9999999999999964 0.0
    vertex 3.9999999999999996 3.85 0.0
  endloop
endfacet
facet normal -0.0 -0.0 1.0
  outer loop
    vertex 3.9999999999999996 3.85 0.0
    vertex 7.999999999999999 -7.9999999999999964 0.0
    vertex 4.232937140592267 3.8806667563398385 0.0
  endloop
endfacet
facet normal -0.0 -0.0 1.0
  outer loop
    vertex 4.232937140592267 3.8806667563398385 0.0
    vertex 7.999999999999999 -7.9999999999999964 0.0
    vertex 4.449999999999999 3.9705771365940046 0.0
  endloop
endfacet
facet normal -0.0 -0.0 1.0
  outer loop
    vertex 4.449999999999999 3.9705771365940046 0.0
    vertex 7.999999999999999 -7.9999999999999964 0.0
    vertex 4.636396103067892 4.113603896932107 0.0
  endloop
endfacet
facet normal -0.0 -0.0 1.0
  outer loop
    vertex 4.636396103067892 4.113603896932107 0.0
    vertex 7.999999999999999 -7.9999999999999964 0.0
    vertex 4.779422863405994 4.299999999999999 0.0
  endloop
endfacet
facet normal -0.0 -0.0 1.0
  outer loop
    vertex 4.779422863405994 4.299999999999999 0.0
    vertex 7.999999999999999 -7.9999999999999964 0.0
    vertex 4.8693332436601615 4.51706285940773 0.0
  endloop
endfacet
facet normal -0.0 -0.0 1.0
  outer loop
    vertex 4.8693332436601615 4.51706285940773 0.0
    vertex 7.999999999999999 -7.9999999999999964 0.0
    vertex 4.8999999999999995 4.75 0.0
  endloop
endfacet
facet normal -0.0 -0.0 1.0
  outer loop
    vertex 4.8999999999999995 4.75 0.0
    vertex 7.999999999999999 -7.9999999999999964 0.0
    vertex 4.8999999999999995 14.25 0.0
  endloop
endfacet
facet normal -0.0 -0.0 1.0
  outer loop
    vertex 0.0 19.0 0.0
    vertex 3.3636038969321067 14.886396103067892 0.0
    vertex 7.999999999999999 19.0 0.0
  endloop
endfacet
facet normal -0.0 -0.0 1.0
  outer loop
    vertex 3.3636038969321067 14.886396103067892 0.0
    vertex 0.0 19.0 0.0
    vertex 3.2205771365940055 14.7 0.0
  endloop
endfacet
facet normal -0.0 -0.0 1.0
  outer loop
    vertex 3.2205771365940055 14.7 0.0
    vertex 0.0 19.0 0.0
    vertex 3.1306667563398385 14.482937140592268 0.0
  endloop
endfacet
facet normal -0.0 -0.0 1.0
  outer loop
    vertex 3.1306667563398385 14.482937140592268 0.0
    vertex 0.0 19.0 0.0
    vertex 3.1 14.25 0.0
  endloop
endfacet
facet normal -0.0 -0.0 1.0
  outer loop
    vertex 3.1 14.25 0.0
    vertex 0.0 19.0 0.0
    vertex 3.1 4.75 0.0
  endloop
endfacet
facet normal -0.0 -0.0 1.0
  outer loop
    vertex 7.999999999999999 19.0 0.0
    vertex 3.3636038969321067 14.886396103067892 0.0
    vertex 3.55 15.029422863405992 0.0
  endloop
endfacet
facet normal -0.0 -0.0 1.0
  outer loop
    vertex 7.999999999999999 19.0 0.0
    vertex 3.55 15.029422863405992 0.0
    vertex 3.767062859407731 15.119333243660162 0.0
  endloop
endfacet
facet normal -0.0 -0.0 1.0
  outer loop
    vertex 7.999999999999999 19.0 0.0
    vertex 3.767062859407731 15.119333243660162 0.0
    vertex 3.9999999999999996 15.15 0.0
  endloop
endfacet
facet normal -0.0 -0.0 1.0
  outer loop
    vertex 7.999999999999999 19.0 0.0
    vertex 3.9999999999999996 15.15 0.0
    vertex 4.232937140592268 15.119333243660162 0.0
  endloop
endfacet
facet normal -0.0 -0.0 1.0
  outer loop
    vertex 7.999999999999999 19.0 0.0
    vertex 4.232937140592268 15.119333243660162 0.0
    vertex 4.449999999999999 15.029422863405992 0.0
  endloop
endfacet
facet normal -0.0 -0.0 1.0
  outer loop
    vertex 7.999999999999999 19.0 0.0
    vertex 4.449999999999999 15.029422863405992 0.0
    vertex 4.636396103067892 14.886396103067892 0.0
  endloop
endfacet
facet normal -0.0 -0.0 1.0
  outer loop
    vertex 7.999999999999999 19.0 0.0
    vertex 4.636396103067892 14.886396103067892 0.0
    vertex 4.779422863405995 14.7 0.0
  endloop
endfacet
facet normal -0.0 -0.0 1.0
  outer loop
    vertex 7.999999999999999 19.0 0.0
    vertex 4.779422863405995 14.7 0.0
    vertex 4.8693332436601615 14.482937140592268 0.0
  endloop
endfacet
facet normal -0.0 -0.0 1.0
  outer loop
    vertex 7.999999999999999 19.0 0.0
    vertex 4.8693332436601615 14.482937140592268 0.0
    vertex 4.8999999999999995 14.25 0.0
  endloop
endfacet
facet normal -0.0 -0.0 1.0
  outer loop
    vertex 7.999999999999999 19.0 0.0
    vertex 4.8999999999999995 14.25 0.0
    vertex 7.999999999999999 -7.9999999999999964 0.0
  endloop
endfacet
facet normal -0.0 -0.0 1.0
  outer loop
    vertex 3.1306667563398385 4.982937140592268 0.0
    vertex 3.1 14.25 0.0
    vertex 3.1 4.75 0.0
  endloop
endfacet
facet normal -0.0 -0.0 1.0
  outer loop
    vertex 3.1 14.25 0.0
    vertex 3.1306667563398385 4.982937140592268 0.0
    vertex 3.130666756339838 14.01706285940773 0.0
  endloop
endfacet
facet normal -0.0 -0.0 1.0
  outer loop
    vertex 3.130666756339838 14.01706285940773 0.0
    vertex 3.1306667563398385 4.982937140592268 0.0
    vertex 3.2205771365940046 13.8 0.0
  endloop
endfacet
facet normal -0.0 -0.0 1.0
  outer loop
    vertex 3.2205771365940046 13.8 0.0
    vertex 3.1306667563398385 4.982937140592268 0.0
    vertex 3.2205771365940055 5.199999999999999 0.0
  endloop
endfacet
facet normal -0.0 -0.0 1.0
  outer loop
    vertex 3.2205771365940046 13.8 0.0
    vertex 3.2205771365940055 5.199999999999999 0.0
    vertex 3.3636038969321067 13.613603896932107 0.0
  endloop
endfacet
facet normal -0.0 -0.0 1.0
  outer loop
    vertex 3.3636038969321067 13.613603896932107 0.0
    vertex 3.2205771365940055 5.199999999999999 0.0
    vertex 3.3636038969321067 5.386396103067892 0.0
  endloop
endfacet
facet normal -0.0 -0.0 1.0
  outer loop
    vertex 3.3636038969321067 13.613603896932107 0.0
    vertex 3.3636038969321067 5.386396103067892 0.0
    vertex 3.55 5.529422863405995 0.0
  endloop
endfacet
facet normal -0.0 -0.0 1.0
  outer loop
    vertex 3.3636038969321067 13.613603896932107 0.0
    vertex 3.55 5.529422863405995 0.0
    vertex 3.549999999999999 13.470577136594006 0.0
  endloop
endfacet
facet normal -0.0 -0.0 1.0
  outer loop
    vertex 3.549999999999999 13.470577136594006 0.0
    vertex 3.55 5.529422863405995 0.0
    vertex 3.7670628594077304 13.380666756339838 0.0
  endloop
endfacet
facet normal -0.0 -0.0 1.0
  outer loop
    vertex 3.7670628594077304 13.380666756339838 0.0
    vertex 3.55 5.529422863405995 0.0
    vertex 3.767062859407731 5.6193332436601615 0.0
  endloop
endfacet
facet normal -0.0 -0.0 1.0
  outer loop
    vertex 3.7670628594077304 13.380666756339838 0.0
    vertex 3.767062859407731 5.6193332436601615 0.0
    vertex 3.9999999999999996 13.349999999999998 0.0
  endloop
endfacet
facet normal -0.0 -0.0 1.0
  outer loop
    vertex 3.9999999999999996 13.349999999999998 0.0
    vertex 3.767062859407731 5.6193332436601615 0.0
    vertex 3.9999999999999996 5.6499999999999995 0.0
  endloop
endfacet
facet normal -0.0 -0.0 1.0
  outer loop
    vertex 3.9999999999999996 13.349999999999998 0.0
    vertex 3.9999999999999996 5.6499999999999995 0.0
    vertex 4.232937140592268 5.6193332436601615 0.0
  endloop
endfacet
facet normal -0.0 -0.0 1.0
  outer loop
    vertex 3.9999999999999996 13.349999999999998 0.0
    vertex 4.232937140592268 5.6193332436601615 0.0
    vertex 4.232937140592267 13.380666756339838 0.0
  endloop
endfacet
facet normal -0.0 -0.0 1.0
  outer loop
    vertex 4.232937140592267 13.380666756339838 0.0
    vertex 4.232937140592268 5.6193332436601615 0.0
    vertex 4.449999999999999 13.470577136594002 0.0
  endloop
endfacet
facet normal -0.0 -0.0 1.0
  outer loop
    vertex 4.449999999999999 13.470577136594002 0.0
    vertex 4.232937140592268 5.6193332436601615 0.0
    vertex 4.449999999999999 5.529422863405994 0.0
  endloop
endfacet
facet normal -0.0 -0.0 1.0
  outer loop
    vertex 4.449999999999999 13.470577136594002 0.0
    vertex 4.449999999999999 5.529422863405994 0.0
    vertex 4.636396103067892 13.613603896932107 0.0
  endloop
endfacet
facet normal -0.0 -0.0 1.0
  outer loop
    vertex 4.636396103067892 13.613603896932107 0.0
    vertex 4.449999999999999 5.529422863405994 0.0
    vertex 4.636396103067892 5.386396103067892 0.0
  endloop
endfacet
facet normal -0.0 -0.0 1.0
  outer loop
    vertex 4.636396103067892 13.613603896932107 0.0
    vertex 4.636396103067892 5.386396103067892 0.0
    vertex 4.779422863405995 5.199999999999999 0.0
  endloop
endfacet
facet normal -0.0 -0.0 1.0
  outer loop
    vertex 4.636396103067892 13.613603896932107 0.0
    vertex 4.779422863405995 5.199999999999999 0.0
    vertex 4.779422863405994 13.8 0.0
  endloop
endfacet
facet normal -0.0 -0.0 1.0
  outer loop
    vertex 4.779422863405994 13.8 0.0
    vertex 4.779422863405995 5.199999999999999 0.0
    vertex 4.8693332436601615 14.01706285940773 0.0
  endloop
endfacet
facet normal -0.0 -0.0 1.0
  outer loop
    vertex 4.8693332436601615 14.01706285940773 0.0
    vertex 4.779422863405995 5.199999999999999 0.0
    vertex 4.8693332436601615 4.982937140592268 0.0
  endloop
endfacet
facet normal -0.0 -0.0 1.0
  outer loop
    vertex 4.8693332436601615 14.01706285940773 0.0
    vertex 4.8693332436601615 4.982937140592268 0.0
    vertex 4.8999999999999995 4.75 0.0
  endloop
endfacet
facet normal -0.0 -0.0 1.0
  outer loop
    vertex 4.8693332436601615 14.01706285940773 0.0
    vertex 4.8999999999999995 4.75 0.0
    vertex 4.8999999999999995 14.25 0.0
  endloop
endfacet
facet normal 0.0 0.0 1.0
  outer loop
    vertex 0.0 0.0 8.500000000000002
    vertex 3.130666756339838 4.517062859407732 8.500000000000002
    vertex 0.0 19.0 8.500000000000002
  endloop
endfacet
facet normal 0.0 0.0 1.0
  outer loop
    vertex 3.130666756339838 4.517062859407732 8.500000000000002
    vertex 0.0 0.0 8.500000000000002
    vertex 3.2205771365940046 4.3 8.500000000000002
  endloop
endfacet
facet normal 0.0 0.0 1.0
  outer loop
    vertex 3.2205771365940046 4.3 8.500000000000002
    vertex 0.0 0.0 8.500000000000002
    vertex 3.3636038969321067 4.113603896932108 8.500000000000002
  endloop
endfacet
facet normal 0.0 0.0 1.0
  outer loop
    vertex 3.3636038969321067 4.113603896932108 8.500000000000002
    vertex 0.0 0.0 8.500000000000002
    vertex 7.999999999999999 0.0 8.500000000000002
  endloop
endfacet
facet normal 0.0 0.0 1.0
  outer loop
    vertex 0.0 19.0 8.500000000000002
    vertex 3.130666756339838 4.517062859407732 8.500000000000002
    vertex 3.1 4.75 8.500000000000002
  endloop
endfacet
facet normal 0.0 0.0 1.0
  outer loop
    vertex 3.3636038969321067 4.113603896932108 8.500000000000002
    vertex 7.999999999999999 0.0 8.500000000000002
    vertex 3.549999999999999 3.9705771365940055 8.500000000000002
  endloop
endfacet
facet normal 0.0 0.0 1.0
  outer loop
    vertex 3.549999999999999 3.9705771365940055 8.500000000000002
    vertex 7.999999999999999 0.0 8.500000000000002
    vertex 3.7670628594077304 3.8806667563398385 8.500000000000002
  endloop
endfacet
facet normal 0.0 0.0 1.0
  outer loop
    vertex 3.7670628594077304 3.8806667563398385 8.500000000000002
    vertex 7.999999999999999 0.0 8.500000000000002
    vertex 3.9999999999999996 3.85 8.500000000000002
  endloop
endfacet
facet normal 0.0 0.0 1.0
  outer loop
    vertex 3.9999999999999996 3.85 8.500000000000002
    vertex 7.999999999999999 0.0 8.500000000000002
    vertex 4.232937140592267 3.8806667563398385 8.500000000000002
  endloop
endfacet
facet normal 0.0 0.0 1.0
  outer loop
    vertex 4.232937140592267 3.8806667563398385 8.500000000000002
    vertex 7.999999999999999 0.0 8.500000000000002
    vertex 4.449999999999999 3.9705771365940046 8.500000000000002
  endloop
endfacet
facet normal 0.0 0.0 1.0
  outer loop
    vertex 4.449999999999999 3.9705771365940046 8.500000000000002
    vertex 7.999999999999999 0.0 8.500000000000002
    vertex 4.636396103067892 4.113603896932107 8.500000000000002
  endloop
endfacet
facet normal 0.0 0.0 1.0
  outer loop
    vertex 4.636396103067892 4.113603896932107 8.500000000000002
    vertex 7.999999999999999 0.0 8.500000000000002
    vertex 4.779422863405994 4.299999999999999 8.500000000000002
  endloop
endfacet
facet normal 0.0 0.0 1.0
  outer loop
    vertex 4.779422863405994 4.299999999999999 8.500000000000002
    vertex 7.999999999999999 0.0 8.500000000000002
    vertex 4.8693332436601615 4.51706285940773 8.500000000000002
  endloop
endfacet
facet normal 0.0 0.0 1.0
  outer loop
    vertex 4.8693332436601615 4.51706285940773 8.500000000000002
    vertex 7.999999999999999 0.0 8.500000000000002
    vertex 4.8999999999999995 4.75 8.500000000000002
  endloop
endfacet
facet normal 0.0 0.0 1.0
  outer loop
    vertex 4.8999999999999995 4.75 8.500000000000002
    vertex 7.999999999999999 0.0 8.500000000000002
    vertex 4.8999999999999995 14.25 8.500000000000002
  endloop
endfacet
facet normal 0.0 0.0 1.0
  outer loop
    vertex 0.0 19.0 8.500000000000002
    vertex 3.3636038969321067 14.886396103067892 8.500000000000002
    vertex 7.999999999999999 19.0 8.500000000000002
  endloop
endfacet
facet normal 0.0 0.0 1.0
  outer loop
    vertex 3.3636038969321067 14.886396103067892 8.500000000000002
    vertex 0.0 19.0 8.500000000000002
    vertex 3.2205771365940055 14.7 8.500000000000002
  endloop
endfacet
facet normal 0.0 0.0 1.0
  outer loop
    vertex 3.2205771365940055 14.7 8.500000000000002
    vertex 0.0 19.0 8.500000000000002
    vertex 3.1306667563398385 14.482937140592268 8.500000000000002
  endloop
endfacet
facet normal 0.0 0.0 1.0
  outer loop
    vertex 3.1306667563398385 14.482937140592268 8.500000000000002
    vertex 0.0 19.0 8.500000000000002
    vertex 3.1 14.25 8.500000000000002
  endloop
endfacet
facet normal 0.0 0.0 1.0
  outer loop
    vertex 3.1 14.25 8.500000000000002
    vertex 0.0 19.0 8.500000000000002
    vertex 3.1 4.75 8.500000000000002
  endloop
endfacet
facet normal 0.0 0.0 1.0
  outer loop
    vertex 7.999999999999999 19.0 8.500000000000002
    vertex 3.3636038969321067 14.886396103067892 8.500000000000002
    vertex 3.55 15.029422863405992 8.500000000000002
  endloop
endfacet
facet normal 0.0 0.0 1.0
  outer loop
    vertex 7.999999999999999 19.0 8.500000000000002
    vertex 3.55 15.029422863405992 8.500000000000002
    vertex 3.767062859407731 15.119333243660162 8.500000000000002
  endloop
endfacet
facet normal 0.0 0.0 1.0
  outer loop
    vertex 7.999999999999999 19.0 8.500000000000002
    vertex 3.767062859407731 15.119333243660162 8.500000000000002
    vertex 3.9999999999999996 15.15 8.500000000000002
  endloop
endfacet
facet normal 0.0 0.0 1.0
  outer loop
    vertex 7.999999999999999 19.0 8.500000000000002
    vertex 3.9999999999999996 15.15 8.500000000000002
    vertex 4.232937140592268 15.119333243660162 8.500000000000002
  endloop
endfacet
facet normal 0.0 0.0 1.0
  outer loop
    vertex 7.999999999999999 19.0 8.500000000000002
    vertex 4.232937140592268 15.119333243660162 8.500000000000002
    vertex 4.449999999999999 15.029422863405992 8.500000000000002
  endloop
endfacet
facet normal 0.0 0.0 1.0
  outer loop
    vertex 7.999999999999999 19.0 8.500000000000002
    vertex 4.449999999999999 15.029422863405992 8.500000000000002
    vertex 4.636396103067892 14.886396103067892 8.500000000000002
  endloop
endfacet
facet normal 0.0 0.0 1.0
  outer loop
    vertex 7.999999999999999 19.0 8.500000000000002
    vertex 4.636396103067892 14.886396103067892 8.500000000000002
    vertex 4.779422863405995 14.7 8.500000000000002
  endloop
endfacet
facet normal 0.0 0.0 1.0
  outer loop
    vertex 7.999999999999999 19.0 8.500000000000002
    vertex 4.779422863405995 14.7 8.500000000000002
    vertex 4.8693332436601615 14.482937140592268 8.500000000000002
  endloop
endfacet
facet normal 0.0 0.0 1.0
  outer loop
    vertex 7.999999999999999 19.0 8.500000000000002
    vertex 4.8693332436601615 14.482937140592268 8.500000000000002
    vertex 4.8999999999999995 14.25 8.500000000000002
  endloop
endfacet
facet normal 0.0 0.0 1.0
  outer loop
    vertex 7.999999999999999 19.0 8.500000000000002
    vertex 4.8999999999999995 14.25 8.500000000000002
    vertex 7.999999999999999 0.0 8.500000000000002
  endloop
endfacet
facet normal 0.0 0.0 1.0
  outer loop
    vertex 3.1306667563398385 4.982937140592268 8.500000000000002
    vertex 3.1 14.25 8.500000000000002
    vertex 3.1 4.75 8.500000000000002
  endloop
endfacet
facet normal 0.0 0.0 1.0
  outer loop
    vertex 3.1 14.25 8.500000000000002
    vertex 3.1306667563398385 4.982937140592268 8.500000000000002
    vertex 3.130666756339838 14.01706285940773 8.500000000000002
  endloop
endfacet
facet normal 0.0 0.0 1.0
  outer loop
    vertex 3.130666756339838 14.01706285940773 8.500000000000002
    vertex 3.1306667563398385 4.982937140592268 8.500000000000002
    vertex 3.2205771365940046 13.8 8.500000000000002
  endloop
endfacet
facet normal 0.0 0.0 1.0
  outer loop
    vertex 3.2205771365940046 13.8 8.500000000000002
    vertex 3.1306667563398385 4.982937140592268 8.500000000000002
    vertex 3.2205771365940055 5.199999999999999 8.500000000000002
  endloop
endfacet
facet normal 0.0 0.0 1.0
  outer loop
    vertex 3.2205771365940046 13.8 8.500000000000002
    vertex 3.2205771365940055 5.199999999999999 8.500000000000002
    vertex 3.3636038969321067 13.613603896932107 8.500000000000002
  endloop
endfacet
facet normal 0.0 0.0 1.0
  outer loop
    vertex 3.3636038969321067 13.613603896932107 8.500000000000002
    vertex 3.2205771365940055 5.199999999999999 8.500000000000002
    vertex 3.3636038969321067 5.386396103067892 8.500000000000002
  endloop
endfacet
facet normal 0.0 0.0 1.0
  outer loop
    vertex 3.3636038969321067 13.613603896932107 8.500000000000002
    vertex 3.3636038969321067 5.386396103067892 8.500000000000002
    vertex 3.55 5.529422863405995 8.500000000000002
  endloop
endfacet
facet normal 0.0 0.0 1.0
  outer loop
    vertex 3.3636038969321067 13.613603896932107 8.500000000000002
    vertex 3.55 5.529422863405995 8.500000000000002
    vertex 3.549999999999999 13.470577136594006 8.500000000000002
  endloop
endfacet
facet normal 0.0 0.0 1.0
  outer loop
    vertex 3.549999999999999 13.470577136594006 8.500000000000002
    vertex 3.55 5.529422863405995 8.500000000000002
    vertex 3.7670628594077304 13.380666756339838 8.500000000000002
  endloop
endfacet
facet normal 0.0 0.0 1.0
  outer loop
    vertex 3.7670628594077304 13.380666756339838 8.500000000000002
    vertex 3.55 5.529422863405995 8.500000000000002
    vertex 3.767062859407731 5.6193332436601615 8.500000000000002
  endloop
endfacet
facet normal 0.0 0.0 1.0
  outer loop
    vertex 3.7670628594077304 13.380666756339838 8.500000000000002
    vertex 3.767062859407731 5.6193332436601615 8.500000000000002
    vertex 3.9999999999999996 13.349999999999998 8.500000000000002
  endloop
endfacet
facet normal 0.0 0.0 1.0
  outer loop
    vertex 3.9999999999999996 13.349999999999998 8.500000000000002
    vertex 3.767062859407731 5.6193332436601615 8.500000000000002
    vertex 3.9999999999999996 5.6499999999999995 8.500000000000002
  endloop
endfacet
facet normal 0.0 0.0 1.0
  outer loop
    vertex 3.9999999999999996 13.349999999999998 8.500000000000002
    vertex 3.9999999999999996 5.6499999999999995 8.500000000000002
    vertex 4.232937140592268 5.6193332436601615 8.500000000000002
  endloop
endfacet
facet normal 0.0 0.0 1.0
  outer loop
    vertex 3.9999999999999996 13.349999999999998 8.500000000000002
    vertex 4.232937140592268 5.6193332436601615 8.500000000000002
    vertex 4.232937140592267 13.380666756339838 8.500000000000002
  endloop
endfacet
facet normal 0.0 0.0 1.0
  outer loop
    vertex 4.232937140592267 13.380666756339838 8.500000000000002
    vertex 4.232937140592268 5.6193332436601615 8.500000000000002
    vertex 4.449999999999999 13.470577136594002 8.500000000000002
  endloop
endfacet
facet normal 0.0 0.0 1.0
  outer loop
    vertex 4.449999999999999 13.470577136594002 8.500000000000002
    vertex 4.232937140592268 5.6193332436601615 8.500000000000002
    vertex 4.449999999999999 5.529422863405994 8.500000000000002
  endloop
endfacet
facet normal 0.0 0.0 1.0
  outer loop
    vertex 4.449999999999999 13.470577136594002 8.500000000000002
    vertex 4.449999999999999 5.529422863405994 8.500000000000002
    vertex 4.636396103067892 13.613603896932107 8.500000000000002
  endloop
endfacet
facet normal 0.0 0.0 1.0
  outer loop
    vertex 4.636396103067892 13.613603896932107 8.500000000000002
    vertex 4.449999999999999 5.529422863405994 8.500000000000002
    vertex 4.636396103067892 5.386396103067892 8.500000000000002
  endloop
endfacet
facet normal 0.0 0.0 1.0
  outer loop
    vertex 4.636396103067892 13.613603896932107 8.500000000000002
    vertex 4.636396103067892 5.386396103067892 8.500000000000002
    vertex 4.779422863405995 5.199999999999999 8.500000000000002
  endloop
endfacet
facet normal 0.0 0.0 1.0
  outer loop
    vertex 4.636396103067892 13.613603896932107 8.500000000000002
    vertex 4.779422863405995 5.199999999999999 8.500000000000002
    vertex 4.779422863405994 13.8 8.500000000000002
  endloop
endfacet
facet normal 0.0 0.0 1.0
  outer loop
    vertex 4.779422863405994 13.8 8.500000000000002
    vertex 4.779422863405995 5.199999999999999 8.500000000000002
    vertex 4.8693332436601615 14.01706285940773 8.500000000000002
  endloop
endfacet
facet normal 0.0 0.0 1.0
  outer loop
    vertex 4.8693332436601615 14.01706285940773 8.500000000000002
    vertex 4.779422863405995 5.199999999999999 8.500000000000002
    vertex 4.8693332436601615 4.982937140592268 8.500000000000002
  endloop
endfacet
facet normal 0.0 0.0 1.0
  outer loop
    vertex 4.8693332436601615 14.01706285940773 8.500000000000002
    vertex 4.8693332436601615 4.982937140592268 8.500000000000002
    vertex 4.8999999999999995 4.75 8.500000000000002
  endloop
endfacet
facet normal 0.0 0.0 1.0
  outer loop
    vertex 4.8693332436601615 14.01706285940773 8.500000000000002
    vertex 4.8999999999999995 4.75 8.500000000000002
    vertex 4.8999999999999995 14.25 8.500000000000002
  endloop
endfacet
facet normal -0.0 0.9999999999999999 0.0
  outer loop
    vertex 0.0 19.0 8.500000000000002
    vertex 7.999999999999999 19.0 0.0
    vertex 0.0 19.0 0.0
  endloop
endfacet
facet normal -0.0 0.9999999999999999 0.0
  outer loop
    vertex 7.999999999999999 19.0 0.0
    vertex 0.0 19.0 8.500000000000002
    vertex 7.999999999999999 19.0 8.500000000000002
  endloop
endfacet
facet normal 1.0 0.0 0.0
  outer loop
    vertex 7.999999999999999 19.0 0.0
    vertex 7.999999999999999 -7.9999999999999964 3.0
    vertex 7.999999999999999 -7.9999999999999964 0.0
  endloop
endfacet
facet normal 1.0 0.0 0.0
  outer loop
    vertex 7.999999999999999 -7.9999999999999964 3.0
    vertex 7.999999999999999 19.0 0.0
    vertex 7.999999999999999 0.0 3.0
  endloop
endfacet
facet normal 1.0 0.0 0.0
  outer loop
    vertex 7.999999999999999 0.0 3.0
    vertex 7.999999999999999 19.0 0.0
    vertex 7.999999999999999 0.0 8.500000000000002
  endloop
endfacet
facet normal 1.0 0.0 0.0
  outer loop
    vertex 7.999999999999999 0.0 8.500000000000002
    vertex 7.999999999999999 19.0 0.0
    vertex 7.999999999999999 19.0 8.500000000000002
  endloop
endfacet
facet normal 0.0 -1.0 0.0
  outer loop
    vertex 7.999999999999999 0.0 8.500000000000002
    vertex 0.0 0.0 3.0
    vertex 7.999999999999999 0.0 3.0
  endloop
endfacet
facet normal 0.0 -1.0 0.0
  outer loop
    vertex 0.0 0.0 3.0
    vertex 7.999999999999999 0.0 8.500000000000002
    vertex 0.0 0.0 8.500000000000002
  endloop
endfacet
facet normal -1.0 0.0 0.0
  outer loop
    vertex 0.0 19.0 8.500000000000002
    vertex 0.0 0.0 3.0
    vertex 0.0 0.0 8.500000000000002
  endloop
endfacet
facet normal -1.0 0.0 0.0
  outer loop
    vertex 0.0 0.0 3.0
    vertex 0.0 -7.9999999999999964 0.0
    vertex 0.0 -7.9999999999999964 3.0
  endloop
endfacet
facet normal -1.0 0.0 0.0
  outer loop
    vertex 0.0 -7.9999999999999964 0.0
    vertex 0.0 0.0 3.0
    vertex 0.0 19.0 0.0
  endloop
endfacet
facet normal -1.0 0.0 0.0
  outer loop
    vertex 0.0 19.0 0.0
    vertex 0.0 0.0 3.0
    vertex 0.0 19.0 8.500000000000002
  endloop
endfacet
facet normal -0.2588190451025213 -0.9659258262890681 0.0
  outer loop
    vertex 4.232937140592268 5.6193332436601615 8.500000000000002
    vertex 3.9999999999999996 5.6499999999999995 0.0
    vertex 4.232937140592268 5.6193332436601615 0.0
  endloop
endfacet
facet normal 0.0 -1.0 0.0
  outer loop
    vertex 3.9999999999999996 5.6499999999999995 0.0
    vertex 4.232937140592268 5.6193332436601615 8.500000000000002
    vertex 3.9999999999999996 5.6499999999999995 8.500000000000002
  endloop
endfacet
facet normal 0.0 -1.0 0.0
  outer loop
    vertex 3.9999999999999996 5.6499999999999995 8.500000000000002
    vertex 3.767062859407731 5.6193332436601615 0.0
    vertex 3.9999999999999996 5.6499999999999995 0.0
  endloop
endfacet
facet normal 0.25881904510252 -0.9659258262890685 0.0
  outer loop
    vertex 3.767062859407731 5.6193332436601615 0.0
    vertex 3.9999999999999996 5.6499999999999995 8.500000000000002
    vertex 3.767062859407731 5.6193332436601615 8.500000000000002
  endloop
endfacet
facet normal 0.25881904510252 -0.9659258262890685 0.0
  outer loop
    vertex 3.767062859407731 5.6193332436601615 8.500000000000002
    vertex 3.55 5.529422863405995 0.0
    vertex 3.767062859407731 5.6193332436601615 0.0
  endloop
endfacet
facet normal 0.4999999999999999 -0.8660254037844388 0.0
  outer loop
    vertex 3.55 5.529422863405995 0.0
    vertex 3.767062859407731 5.6193332436601615 8.500000000000002
    vertex 3.55 5.529422863405995 8.500000000000002
  endloop
endfacet
facet normal 0.4999999999999999 -0.8660254037844388 0.0
  outer loop
    vertex 3.55 5.529422863405995 8.500000000000002
    vertex 3.3636038969321067 5.386396103067892 0.0
    vertex 3.55 5.529422863405995 0.0
  endloop
endfacet
facet normal 0.7071067811865485 -0.7071067811865468 0.0
  outer loop
    vertex 3.3636038969321067 5.386396103067892 0.0
    vertex 3.55 5.529422863405995 8.500000000000002
    vertex 3.3636038969321067 5.386396103067892 8.500000000000002
  endloop
endfacet
facet normal 0.7071067811865485 -0.7071067811865468 0.0
  outer loop
    vertex 3.3636038969321067 5.386396103067892 0.0
    vertex 3.2205771365940055 5.199999999999999 8.500000000000002
    vertex 3.2205771365940055 5.199999999999999 0.0
  endloop
endfacet
facet normal 0.8660254037844392 -0.49999999999999944 0.0
  outer loop
    vertex 3.2205771365940055 5.199999999999999 8.500000000000002
    vertex 3.3636038969321067 5.386396103067892 0.0
    vertex 3.3636038969321067 5.386396103067892 8.500000000000002
  endloop
endfacet
facet normal 0.8660254037844392 -0.49999999999999944 0.0
  outer loop
    vertex 3.2205771365940055 5.199999999999999 0.0
    vertex 3.1306667563398385 4.982937140592268 8.500000000000002
    vertex 3.1306667563398385 4.982937140592268 0.0
  endloop
endfacet
facet normal 0.9659258262890681 -0.25881904510252135 0.0
  outer loop
    vertex 3.1306667563398385 4.982937140592268 8.500000000000002
    vertex 3.2205771365940055 5.199999999999999 0.0
    vertex 3.2205771365940055 5.199999999999999 8.500000000000002
  endloop
endfacet
facet normal 0.9659258262890681 -0.25881904510252135 0.0
  outer loop
    vertex 3.1306667563398385 4.982937140592268 0.0
    vertex 3.1 4.75 8.500000000000002
    vertex 3.1 4.75 0.0
  endloop
endfacet
facet normal 1.0 -5.435777036344612e-16 0.0
  outer loop
    vertex 3.1 4.75 8.500000000000002
    vertex 3.1306667563398385 4.982937140592268 0.0
    vertex 3.1306667563398385 4.982937140592268 8.500000000000002
  endloop
endfacet
facet normal 1.0 -5.435777036344612e-16 0.0
  outer loop
    vertex 3.1 4.75 0.0
    vertex 3.130666756339838 4.517062859407732 8.500000000000002
    vertex 3.130666756339838 4.517062859407732 0.0
  endloop
endfacet
facet normal 0.9659258262890685 0.25881904510251963 0.0
  outer loop
    vertex 3.130666756339838 4.517062859407732 8.500000000000002
    vertex 3.1 4.75 0.0
    vertex 3.1 4.75 8.500000000000002
  endloop
endfacet
facet normal 0.9659258262890685 0.25881904510251963 0.0
  outer loop
    vertex 3.130666756339838 4.517062859407732 0.0
    vertex 3.2205771365940046 4.3 8.500000000000002
    vertex 3.2205771365940046 4.3 0.0
  endloop
endfacet
facet normal 0.8660254037844386 0.5 0.0
  outer loop
    vertex 3.2205771365940046 4.3 8.500000000000002
    vertex 3.130666756339838 4.517062859407732 0.0
    vertex 3.130666756339838 4.517062859407732 8.500000000000002
  endloop
endfacet
facet normal 0.8660254037844386 0.5 0.0
  outer loop
    vertex 3.2205771365940046 4.3 0.0
    vertex 3.3636038969321067 4.113603896932108 8.500000000000002
    vertex 3.3636038969321067 4.113603896932108 0.0
  endloop
endfacet
facet normal 0.7071067811865476 0.7071067811865476 0.0
  outer loop
    vertex 3.3636038969321067 4.113603896932108 8.500000000000002
    vertex 3.2205771365940046 4.3 0.0
    vertex 3.2205771365940046 4.3 8.500000000000002
  endloop
endfacet
facet normal 0.7071067811865476 0.7071067811865476 0.0
  outer loop
    vertex 3.3636038969321067 4.113603896932108 8.500000000000002
    vertex 3.549999999999999 3.9705771365940055 0.0
    vertex 3.3636038969321067 4.113603896932108 0.0
  endloop
endfacet
facet normal 0.5000000000000019 0.8660254037844376 0.0
  outer loop
    vertex 3.549999999999999 3.9705771365940055 0.0
    vertex 3.3636038969321067 4.113603896932108 8.500000000000002
    vertex 3.549999999999999 3.9705771365940055 8.500000000000002
  endloop
endfacet
facet normal 0.5000000000000019 0.8660254037844376 0.0
  outer loop
    vertex 3.549999999999999 3.9705771365940055 8.500000000000002
    vertex 3.7670628594077304 3.8806667563398385 0.0
    vertex 3.549999999999999 3.9705771365940055 0.0
  endloop
endfacet
facet normal 0.25881904510252113 0.9659258262890681 0.0
  outer loop
    vertex 3.7670628594077304 3.8806667563398385 0.0
    vertex 3.549999999999999 3.9705771365940055 8.500000000000002
    vertex 3.7670628594077304 3.8806667563398385 8.500000000000002
  endloop
endfacet
facet normal 0.25881904510252113 0.9659258262890681 0.0
  outer loop
    vertex 3.7670628594077304 3.8806667563398385 8.500000000000002
    vertex 3.9999999999999996 3.85 0.0
    vertex 3.7670628594077304 3.8806667563398385 0.0
  endloop
endfacet
facet normal -3.9208883540846383e-16 1.0 0.0
  outer loop
    vertex 3.9999999999999996 3.85 0.0
    vertex 3.7670628594077304 3.8806667563398385 8.500000000000002
    vertex 3.9999999999999996 3.85 8.500000000000002
  endloop
endfacet
facet normal -3.9208883540846383e-16 1.0 0.0
  outer loop
    vertex 3.9999999999999996 3.85 8.500000000000002
    vertex 4.232937140592267 3.8806667563398385 0.0
    vertex 3.9999999999999996 3.85 0.0
  endloop
endfacet
facet normal -0.2588190451025202 0.9659258262890685 0.0
  outer loop
    vertex 4.232937140592267 3.8806667563398385 0.0
    vertex 3.9999999999999996 3.85 8.500000000000002
    vertex 4.232937140592267 3.8806667563398385 8.500000000000002
  endloop
endfacet
facet normal -0.2588190451025202 0.9659258262890685 0.0
  outer loop
    vertex 4.232937140592267 3.8806667563398385 8.500000000000002
    vertex 4.449999999999999 3.9705771365940046 0.0
    vertex 4.232937140592267 3.8806667563398385 0.0
  endloop
endfacet
facet normal -0.499999999999999 0.8660254037844393 0.0
  outer loop
    vertex 4.449999999999999 3.9705771365940046 0.0
    vertex 4.232937140592267 3.8806667563398385 8.500000000000002
    vertex 4.449999999999999 3.9705771365940046 8.500000000000002
  endloop
endfacet
facet normal -0.499999999999999 0.8660254037844393 0.0
  outer loop
    vertex 4.449999999999999 3.9705771365940046 8.500000000000002
    vertex 4.636396103067892 4.113603896932107 0.0
    vertex 4.449999999999999 3.9705771365940046 0.0
  endloop
endfacet
facet normal -0.7071067811865472 0.707106781186548 0.0
  outer loop
    vertex 4.636396103067892 4.113603896932107 0.0
    vertex 4.449999999999999 3.9705771365940046 8.500000000000002
    vertex 4.636396103067892 4.113603896932107 8.500000000000002
  endloop
endfacet
facet normal -0.8660254037844383 0.5000000000000007 0.0
  outer loop
    vertex 4.779422863405994 4.299999999999999 8.500000000000002
    vertex 4.636396103067892 4.113603896932107 0.0
    vertex 4.636396103067892 4.113603896932107 8.500000000000002
  endloop
endfacet
facet normal -0.7071067811865472 0.707106781186548 0.0
  outer loop
    vertex 4.636396103067892 4.113603896932107 0.0
    vertex 4.779422863405994 4.299999999999999 8.500000000000002
    vertex 4.779422863405994 4.299999999999999 0.0
  endloop
endfacet
facet normal -0.9659258262890681 0.25881904510252113 0.0
  outer loop
    vertex 4.8693332436601615 4.51706285940773 8.500000000000002
    vertex 4.779422863405994 4.299999999999999 0.0
    vertex 4.779422863405994 4.299999999999999 8.500000000000002
  endloop
endfacet
facet normal -0.8660254037844383 0.5000000000000007 0.0
  outer loop
    vertex 4.779422863405994 4.299999999999999 0.0
    vertex 4.8693332436601615 4.51706285940773 8.500000000000002
    vertex 4.8693332436601615 4.51706285940773 0.0
  endloop
endfacet
facet normal -1.0 -1.9604441770423192e-16 0.0
  outer loop
    vertex 4.8999999999999995 4.75 8.500000000000002
    vertex 4.8693332436601615 4.51706285940773 0.0
    vertex 4.8693332436601615 4.51706285940773 8.500000000000002
  endloop
endfacet
facet normal -0.9659258262890681 0.25881904510252113 0.0
  outer loop
    vertex 4.8693332436601615 4.51706285940773 0.0
    vertex 4.8999999999999995 4.75 8.500000000000002
    vertex 4.8999999999999995 4.75 0.0
  endloop
endfacet
facet normal -0.9659258262890685 -0.25881904510252 0.0
  outer loop
    vertex 4.8693332436601615 4.982937140592268 8.500000000000002
    vertex 4.8999999999999995 4.75 0.0
    vertex 4.8999999999999995 4.75 8.500000000000002
  endloop
endfacet
facet normal -1.0 -1.9604441770423192e-16 0.0
  outer loop
    vertex 4.8999999999999995 4.75 0.0
    vertex 4.8693332436601615 4.982937140592268 8.500000000000002
    vertex 4.8693332436601615 4.982937140592268 0.0
  endloop
endfacet
facet normal -0.8660254037844388 -0.4999999999999999 0.0
  outer loop
    vertex 4.779422863405995 5.199999999999999 8.500000000000002
    vertex 4.8693332436601615 4.982937140592268 0.0
    vertex 4.8693332436601615 4.982937140592268 8.500000000000002
  endloop
endfacet
facet normal -0.9659258262890685 -0.25881904510252 0.0
  outer loop
    vertex 4.8693332436601615 4.982937140592268 0.0
    vertex 4.779422863405995 5.199999999999999 8.500000000000002
    vertex 4.779422863405995 5.199999999999999 0.0
  endloop
endfacet
facet normal -0.7071067811865468 -0.7071067811865485 0.0
  outer loop
    vertex 4.636396103067892 5.386396103067892 8.500000000000002
    vertex 4.779422863405995 5.199999999999999 0.0
    vertex 4.779422863405995 5.199999999999999 8.500000000000002
  endloop
endfacet
facet normal -0.8660254037844388 -0.4999999999999999 0.0
  outer loop
    vertex 4.779422863405995 5.199999999999999 0.0
    vertex 4.636396103067892 5.386396103067892 8.500000000000002
    vertex 4.636396103067892 5.386396103067892 0.0
  endloop
endfacet
facet normal -0.7071067811865468 -0.7071067811865485 0.0
  outer loop
    vertex 4.636396103067892 5.386396103067892 8.500000000000002
    vertex 4.449999999999999 5.529422863405994 0.0
    vertex 4.636396103067892 5.386396103067892 0.0
  endloop
endfacet
facet normal -0.5 -0.8660254037844386 0.0
  outer loop
    vertex 4.449999999999999 5.529422863405994 0.0
    vertex 4.636396103067892 5.386396103067892 8.500000000000002
    vertex 4.449999999999999 5.529422863405994 8.500000000000002
  endloop
endfacet
facet normal -0.5 -0.8660254037844386 0.0
  outer loop
    vertex 4.449999999999999 5.529422863405994 8.500000000000002
    vertex 4.232937140592268 5.6193332436601615 0.0
    vertex 4.449999999999999 5.529422863405994 0.0
  endloop
endfacet
facet normal -0.2588190451025213 -0.9659258262890681 0.0
  outer loop
    vertex 4.232937140592268 5.6193332436601615 0.0
    vertex 4.449999999999999 5.529422863405994 8.500000000000002
    vertex 4.232937140592268 5.6193332436601615 8.500000000000002
  endloop
endfacet
facet normal -1.0 0.0 0.0
  outer loop
    vertex 4.8999999999999995 14.25 8.500000000000002
    vertex 4.8693332436601615 14.01706285940773 0.0
    vertex 4.8693332436601615 14.01706285940773 8.500000000000002
  endloop
endfacet
facet normal -0.965925826289068 0.25881904510252235 0.0
  outer loop
    vertex 4.8693332436601615 14.01706285940773 0.0
    vertex 4.8999999999999995 14.25 8.500000000000002
    vertex 4.8999999999999995 14.25 0.0
  endloop
endfacet
facet normal -0.9659258262890683 -0.2588190451025209 0.0
  outer loop
    vertex 4.8693332436601615 14.482937140592268 8.500000000000002
    vertex 4.8999999999999995 14.25 0.0
    vertex 4.8999999999999995 14.25 8.500000000000002
  endloop
endfacet
facet normal -1.0 0.0 0.0
  outer loop
    vertex 4.8999999999999995 14.25 0.0
    vertex 4.8693332436601615 14.482937140592268 8.500000000000002
    vertex 4.8693332436601615 14.482937140592268 0.0
  endloop
endfacet
facet normal -0.8660254037844383 -0.5000000000000007 0.0
  outer loop
    vertex 4.779422863405995 14.7 8.500000000000002
    vertex 4.8693332436601615 14.482937140592268 0.0
    vertex 4.8693332436601615 14.482937140592268 8.500000000000002
  endloop
endfacet
facet normal -0.9659258262890683 -0.2588190451025209 0.0
  outer loop
    vertex 4.8693332436601615 14.482937140592268 0.0
    vertex 4.779422863405995 14.7 8.500000000000002
    vertex 4.779422863405995 14.7 0.0
  endloop
endfacet
facet normal -0.7071067811865468 -0.7071067811865485 0.0
  outer loop
    vertex 4.636396103067892 14.886396103067892 8.500000000000002
    vertex 4.779422863405995 14.7 0.0
    vertex 4.779422863405995 14.7 8.500000000000002
  endloop
endfacet
facet normal -0.8660254037844383 -0.5000000000000007 0.0
  outer loop
    vertex 4.779422863405995 14.7 0.0
    vertex 4.636396103067892 14.886396103067892 8.500000000000002
    vertex 4.636396103067892 14.886396103067892 0.0
  endloop
endfacet
facet normal -0.7071067811865468 -0.7071067811865485 0.0
  outer loop
    vertex 4.636396103067892 14.886396103067892 8.500000000000002
    vertex 4.449999999999999 15.029422863405992 0.0
    vertex 4.636396103067892 14.886396103067892 0.0
  endloop
endfacet
facet normal -0.5000000000000013 -0.866025403784438 0.0
  outer loop
    vertex 4.449999999999999 15.029422863405992 0.0
    vertex 4.636396103067892 14.886396103067892 8.500000000000002
    vertex 4.449999999999999 15.029422863405992 8.500000000000002
  endloop
endfacet
facet normal -0.5000000000000013 -0.866025403784438 0.0
  outer loop
    vertex 4.449999999999999 15.029422863405992 8.500000000000002
    vertex 4.232937140592268 15.119333243660162 0.0
    vertex 4.449999999999999 15.029422863405992 0.0
  endloop
endfacet
facet normal -0.2588190451025255 -0.965925826289067 0.0
  outer loop
    vertex 4.232937140592268 15.119333243660162 0.0
    vertex 4.449999999999999 15.029422863405992 8.500000000000002
    vertex 4.232937140592268 15.119333243660162 8.500000000000002
  endloop
endfacet
facet normal -0.2588190451025255 -0.965925826289067 0.0
  outer loop
    vertex 4.232937140592268 15.119333243660162 8.500000000000002
    vertex 3.9999999999999996 15.15 0.0
    vertex 4.232937140592268 15.119333243660162 0.0
  endloop
endfacet
facet normal 0.0 -1.0 0.0
  outer loop
    vertex 3.9999999999999996 15.15 0.0
    vertex 4.232937140592268 15.119333243660162 8.500000000000002
    vertex 3.9999999999999996 15.15 8.500000000000002
  endloop
endfacet
facet normal 0.0 -1.0 0.0
  outer loop
    vertex 3.9999999999999996 15.15 8.500000000000002
    vertex 3.767062859407731 15.119333243660162 0.0
    vertex 3.9999999999999996 15.15 0.0
  endloop
endfacet
facet normal 0.2588190451025255 -0.965925826289067 0.0
  outer loop
    vertex 3.767062859407731 15.119333243660162 0.0
    vertex 3.9999999999999996 15.15 8.500000000000002
    vertex 3.767062859407731 15.119333243660162 8.500000000000002
  endloop
endfacet
facet normal 0.2588190451025255 -0.965925826289067 0.0
  outer loop
    vertex 3.767062859407731 15.119333243660162 8.500000000000002
    vertex 3.55 15.029422863405992 0.0
    vertex 3.767062859407731 15.119333243660162 0.0
  endloop
endfacet
facet normal 0.5000000000000013 -0.866025403784438 0.0
  outer loop
    vertex 3.55 15.029422863405992 0.0
    vertex 3.767062859407731 15.119333243660162 8.500000000000002
    vertex 3.55 15.029422863405992 8.500000000000002
  endloop
endfacet
facet normal 0.5000000000000013 -0.866025403784438 0.0
  outer loop
    vertex 3.55 15.029422863405992 8.500000000000002
    vertex 3.3636038969321067 14.886396103067892 0.0
    vertex 3.55 15.029422863405992 0.0
  endloop
endfacet
facet normal 0.7071067811865475 -0.7071067811865475 0.0
  outer loop
    vertex 3.3636038969321067 14.886396103067892 0.0
    vertex 3.55 15.029422863405992 8.500000000000002
    vertex 3.3636038969321067 14.886396103067892 8.500000000000002
  endloop
endfacet
facet normal 0.7071067811865475 -0.7071067811865475 0.0
  outer loop
    vertex 3.3636038969321067 14.886396103067892 0.0
    vertex 3.2205771365940055 14.7 8.500000000000002
    vertex 3.2205771365940055 14.7 0.0
  endloop
endfacet
facet normal 0.8660254037844385 -0.5000000000000003 0.0
  outer loop
    vertex 3.2205771365940055 14.7 8.500000000000002
    vertex 3.3636038969321067 14.886396103067892 0.0
    vertex 3.3636038969321067 14.886396103067892 8.500000000000002
  endloop
endfacet
facet normal 0.8660254037844385 -0.5000000000000003 0.0
  outer loop
    vertex 3.2205771365940055 14.7 0.0
    vertex 3.1306667563398385 14.482937140592268 8.500000000000002
    vertex 3.1306667563398385 14.482937140592268 0.0
  endloop
endfacet
facet normal 0.9659258262890679 -0.2588190451025223 0.0
  outer loop
    vertex 3.1306667563398385 14.482937140592268 8.500000000000002
    vertex 3.2205771365940055 14.7 0.0
    vertex 3.2205771365940055 14.7 8.500000000000002
  endloop
endfacet
facet normal 0.9659258262890679 -0.2588190451025223 0.0
  outer loop
    vertex 3.1306667563398385 14.482937140592268 0.0
    vertex 3.1 14.25 8.500000000000002
    vertex 3.1 14.25 0.0
  endloop
endfacet
facet normal 1.0 -7.396221213386932e-16 0.0
  outer loop
    vertex 3.1 14.25 8.500000000000002
    vertex 3.1306667563398385 14.482937140592268 0.0
    vertex 3.1306667563398385 14.482937140592268 8.500000000000002
  endloop
endfacet
facet normal 1.0 -7.396221213386932e-16 0.0
  outer loop
    vertex 3.1 14.25 0.0
    vertex 3.130666756339838 14.01706285940773 8.500000000000002
    vertex 3.130666756339838 14.01706285940773 0.0
  endloop
endfacet
facet normal 0.9659258262890683 0.2588190451025209 0.0
  outer loop
    vertex 3.130666756339838 14.01706285940773 8.500000000000002
    vertex 3.1 14.25 0.0
    vertex 3.1 14.25 8.500000000000002
  endloop
endfacet
facet normal 0.9659258262890683 0.2588190451025209 0.0
  outer loop
    vertex 3.130666756339838 14.01706285940773 0.0
    vertex 3.2205771365940046 13.8 8.500000000000002
    vertex 3.2205771365940046 13.8 0.0
  endloop
endfacet
facet normal 0.8660254037844383 0.5000000000000007 0.0
  outer loop
    vertex 3.2205771365940046 13.8 8.500000000000002
    vertex 3.130666756339838 14.01706285940773 0.0
    vertex 3.130666756339838 14.01706285940773 8.500000000000002
  endloop
endfacet
facet normal 0.8660254037844383 0.5000000000000007 0.0
  outer loop
    vertex 3.2205771365940046 13.8 0.0
    vertex 3.3636038969321067 13.613603896932107 8.500000000000002
    vertex 3.3636038969321067 13.613603896932107 0.0
  endloop
endfacet
facet normal 0.7071067811865472 0.7071067811865477 0.0
  outer loop
    vertex 3.3636038969321067 13.613603896932107 8.500000000000002
    vertex 3.2205771365940046 13.8 0.0
    vertex 3.2205771365940046 13.8 8.500000000000002
  endloop
endfacet
facet normal 0.7071067811865472 0.7071067811865477 0.0
  outer loop
    vertex 3.3636038969321067 13.613603896932107 8.500000000000002
    vertex 3.549999999999999 13.470577136594006 0.0
    vertex 3.3636038969321067 13.613603896932107 0.0
  endloop
endfacet
facet normal 0.5000000000000019 0.8660254037844375 0.0
  outer loop
    vertex 3.549999999999999 13.470577136594006 0.0
    vertex 3.3636038969321067 13.613603896932107 8.500000000000002
    vertex 3.549999999999999 13.470577136594006 8.500000000000002
  endloop
endfacet
facet normal 0.5000000000000019 0.8660254037844375 0.0
  outer loop
    vertex 3.549999999999999 13.470577136594006 8.500000000000002
    vertex 3.7670628594077304 13.380666756339838 0.0
    vertex 3.549999999999999 13.470577136594006 0.0
  endloop
endfacet
facet normal 0.2588190451025254 0.9659258262890671 0.0
  outer loop
    vertex 3.7670628594077304 13.380666756339838 0.0
    vertex 3.549999999999999 13.470577136594006 8.500000000000002
    vertex 3.7670628594077304 13.380666756339838 8.500000000000002
  endloop
endfacet
facet normal 0.2588190451025254 0.9659258262890671 0.0
  outer loop
    vertex 3.7670628594077304 13.380666756339838 8.500000000000002
    vertex 3.9999999999999996 13.349999999999998 0.0
    vertex 3.7670628594077304 13.380666756339838 0.0
  endloop
endfacet
facet normal -4.099110551997579e-16 1.0 0.0
  outer loop
    vertex 3.9999999999999996 13.349999999999998 0.0
    vertex 3.7670628594077304 13.380666756339838 8.500000000000002
    vertex 3.9999999999999996 13.349999999999998 8.500000000000002
  endloop
endfacet
facet normal -4.099110551997579e-16 1.0 0.0
  outer loop
    vertex 3.9999999999999996 13.349999999999998 8.500000000000002
    vertex 4.232937140592267 13.380666756339838 0.0
    vertex 3.9999999999999996 13.349999999999998 0.0
  endloop
endfacet
facet normal -0.25881904510252035 0.9659258262890683 0.0
  outer loop
    vertex 4.232937140592267 13.380666756339838 0.0
    vertex 3.9999999999999996 13.349999999999998 8.500000000000002
    vertex 4.232937140592267 13.380666756339838 8.500000000000002
  endloop
endfacet
facet normal -0.25881904510252035 0.9659258262890683 0.0
  outer loop
    vertex 4.232937140592267 13.380666756339838 8.500000000000002
    vertex 4.449999999999999 13.470577136594002 0.0
    vertex 4.232937140592267 13.380666756339838 0.0
  endloop
endfacet
facet normal -0.4999999999999996 0.8660254037844388 0.0
  outer loop
    vertex 4.449999999999999 13.470577136594002 0.0
    vertex 4.232937140592267 13.380666756339838 8.500000000000002
    vertex 4.449999999999999 13.470577136594002 8.500000000000002
  endloop
endfacet
facet normal -0.4999999999999996 0.8660254037844388 0.0
  outer loop
    vertex 4.449999999999999 13.470577136594002 8.500000000000002
    vertex 4.636396103067892 13.613603896932107 0.0
    vertex 4.449999999999999 13.470577136594002 0.0
  endloop
endfacet
facet normal -0.7071067811865502 0.7071067811865449 0.0
  outer loop
    vertex 4.636396103067892 13.613603896932107 0.0
    vertex 4.449999999999999 13.470577136594002 8.500000000000002
    vertex 4.636396103067892 13.613603896932107 8.500000000000002
  endloop
endfacet
facet normal -0.8660254037844382 0.500000000000001 0.0
  outer loop
    vertex 4.779422863405994 13.8 8.500000000000002
    vertex 4.636396103067892 13.613603896932107 0.0
    vertex 4.636396103067892 13.613603896932107 8.500000000000002
  endloop
endfacet
facet normal -0.7071067811865502 0.7071067811865449 0.0
  outer loop
    vertex 4.636396103067892 13.613603896932107 0.0
    vertex 4.779422863405994 13.8 8.500000000000002
    vertex 4.779422863405994 13.8 0.0
  endloop
endfacet
facet normal -0.965925826289068 0.25881904510252235 0.0
  outer loop
    vertex 4.8693332436601615 14.01706285940773 8.500000000000002
    vertex 4.779422863405994 13.8 0.0
    vertex 4.779422863405994 13.8 8.500000000000002
  endloop
endfacet
facet normal -0.8660254037844382 0.500000000000001 0.0
  outer loop
    vertex 4.779422863405994 13.8 0.0
    vertex 4.8693332436601615 14.01706285940773 8.500000000000002
    vertex 4.8693332436601615 14.01706285940773 0.0
  endloop
endfacet
facet normal 0.0 -1.0 0.0
  outer loop
    vertex 7.999999999999999 -7.9999999999999964 3.0
    vertex 0.0 -7.9999999999999964 0.0
    vertex 7.999999999999999 -7.9999999999999964 0.0
  endloop
endfacet
facet normal 0.0 -1.0 0.0
  outer loop
    vertex 0.0 -7.9999999999999964 0.0
    vertex 7.999999999999999 -7.9999999999999964 3.0
    vertex 0.0 -7.9999999999999964 3.0
  endloop
endfacet
facet normal 0.0 0.0 0.9999999999999999
  outer loop
    vertex 7.999999999999999 -7.9999999999999964 3.0
    vertex 0.0 0.0 3.0
    vertex 0.0 -7.9999999999999964 3.0
  endloop
endfacet
facet normal 0.0 0.0 0.9999999999999999
  outer loop
    vertex 0.0 0.0 3.0
    vertex 7.999999999999999 -7.9999999999999964 3.0
    vertex 7.999999999999999 0.0 3.0
  endloop
endfacet
endsolid safe_servostand
